<svg width="61" height="75" viewBox="0 0 61 75" fill="none" xmlns="http://www.w3.org/2000/svg">
<path d="M8.58 68.692C8.58 69.336 8.476 69.922 8.268 70.45C8.064 70.978 7.774 71.432 7.398 71.812C7.022 72.188 6.572 72.48 6.048 72.688C5.524 72.896 4.942 73 4.302 73H1.062V64.384H4.302C4.942 64.384 5.524 64.488 6.048 64.696C6.572 64.904 7.022 65.198 7.398 65.578C7.774 65.954 8.064 66.408 8.268 66.94C8.476 67.468 8.58 68.052 8.58 68.692ZM7.272 68.692C7.272 68.18 7.202 67.722 7.062 67.318C6.922 66.91 6.722 66.566 6.462 66.286C6.206 66.002 5.894 65.786 5.526 65.638C5.162 65.49 4.754 65.416 4.302 65.416H2.346V71.968H4.302C4.754 71.968 5.162 71.894 5.526 71.746C5.894 71.598 6.206 71.384 6.462 71.104C6.722 70.82 6.922 70.476 7.062 70.072C7.202 69.668 7.272 69.208 7.272 68.692ZM13.4346 70.294C12.9586 70.31 12.5546 70.348 12.2226 70.408C11.8906 70.464 11.6206 70.54 11.4126 70.636C11.2046 70.732 11.0546 70.846 10.9626 70.978C10.8706 71.106 10.8246 71.25 10.8246 71.41C10.8246 71.562 10.8486 71.694 10.8966 71.806C10.9486 71.914 11.0166 72.004 11.1006 72.076C11.1886 72.144 11.2906 72.194 11.4066 72.226C11.5226 72.258 11.6486 72.274 11.7846 72.274C11.9646 72.274 12.1286 72.256 12.2766 72.22C12.4286 72.184 12.5706 72.134 12.7026 72.07C12.8346 72.002 12.9606 71.92 13.0806 71.824C13.2006 71.728 13.3186 71.618 13.4346 71.494V70.294ZM10.0026 67.756C10.3426 67.432 10.7106 67.19 11.1066 67.03C11.5066 66.87 11.9446 66.79 12.4206 66.79C12.7686 66.79 13.0766 66.848 13.3446 66.964C13.6126 67.076 13.8386 67.234 14.0226 67.438C14.2066 67.642 14.3446 67.886 14.4366 68.17C14.5326 68.454 14.5806 68.768 14.5806 69.112V73H14.0586C13.9426 73 13.8546 72.982 13.7946 72.946C13.7346 72.906 13.6866 72.834 13.6506 72.73L13.5246 72.196C13.3686 72.34 13.2146 72.468 13.0626 72.58C12.9106 72.688 12.7506 72.782 12.5826 72.862C12.4186 72.938 12.2426 72.996 12.0546 73.036C11.8666 73.076 11.6586 73.096 11.4306 73.096C11.1906 73.096 10.9646 73.064 10.7526 73C10.5446 72.932 10.3626 72.83 10.2066 72.694C10.0506 72.558 9.92656 72.388 9.83456 72.184C9.74656 71.98 9.70256 71.742 9.70256 71.47C9.70256 71.23 9.76656 71 9.89456 70.78C10.0266 70.556 10.2386 70.356 10.5306 70.18C10.8266 70.004 11.2106 69.86 11.6826 69.748C12.1586 69.636 12.7426 69.572 13.4346 69.556V69.112C13.4346 68.652 13.3366 68.308 13.1406 68.08C12.9446 67.852 12.6566 67.738 12.2766 67.738C12.0206 67.738 11.8046 67.77 11.6286 67.834C11.4566 67.898 11.3066 67.97 11.1786 68.05C11.0546 68.126 10.9446 68.196 10.8486 68.26C10.7566 68.324 10.6606 68.356 10.5606 68.356C10.4806 68.356 10.4106 68.334 10.3506 68.29C10.2946 68.246 10.2486 68.194 10.2126 68.134L10.0026 67.756ZM20.1008 67.954C20.0688 68.006 20.0348 68.044 19.9988 68.068C19.9628 68.088 19.9168 68.098 19.8608 68.098C19.7968 68.098 19.7248 68.076 19.6448 68.032C19.5688 67.988 19.4748 67.94 19.3628 67.888C19.2548 67.836 19.1268 67.788 18.9788 67.744C18.8308 67.7 18.6548 67.678 18.4508 67.678C18.2828 67.678 18.1288 67.7 17.9888 67.744C17.8528 67.784 17.7368 67.842 17.6408 67.918C17.5448 67.99 17.4708 68.078 17.4188 68.182C17.3668 68.282 17.3408 68.39 17.3408 68.506C17.3408 68.658 17.3848 68.784 17.4728 68.884C17.5648 68.984 17.6828 69.07 17.8268 69.142C17.9748 69.214 18.1408 69.28 18.3248 69.34C18.5128 69.396 18.7028 69.456 18.8948 69.52C19.0908 69.584 19.2808 69.658 19.4648 69.742C19.6528 69.822 19.8188 69.924 19.9628 70.048C20.1108 70.168 20.2288 70.314 20.3168 70.486C20.4088 70.658 20.4548 70.868 20.4548 71.116C20.4548 71.4 20.4028 71.664 20.2988 71.908C20.1988 72.148 20.0488 72.356 19.8488 72.532C19.6528 72.708 19.4088 72.846 19.1168 72.946C18.8248 73.046 18.4908 73.096 18.1148 73.096C17.6948 73.096 17.3068 73.026 16.9508 72.886C16.5948 72.746 16.2968 72.568 16.0568 72.352L16.3328 71.902C16.3648 71.846 16.4048 71.804 16.4528 71.776C16.5008 71.744 16.5648 71.728 16.6448 71.728C16.7208 71.728 16.7988 71.756 16.8788 71.812C16.9588 71.868 17.0548 71.93 17.1668 71.998C17.2788 72.062 17.4148 72.122 17.5748 72.178C17.7348 72.23 17.9348 72.256 18.1748 72.256C18.3748 72.256 18.5488 72.232 18.6968 72.184C18.8448 72.132 18.9668 72.064 19.0628 71.98C19.1628 71.892 19.2368 71.792 19.2848 71.68C19.3328 71.568 19.3568 71.45 19.3568 71.326C19.3568 71.166 19.3108 71.034 19.2188 70.93C19.1308 70.822 19.0128 70.73 18.8648 70.654C18.7208 70.578 18.5548 70.512 18.3668 70.456C18.1788 70.4 17.9868 70.34 17.7908 70.276C17.5948 70.212 17.4028 70.138 17.2148 70.054C17.0268 69.97 16.8588 69.864 16.7108 69.736C16.5668 69.608 16.4488 69.452 16.3568 69.268C16.2688 69.084 16.2248 68.86 16.2248 68.596C16.2248 68.36 16.2728 68.134 16.3688 67.918C16.4688 67.702 16.6108 67.512 16.7948 67.348C16.9828 67.184 17.2128 67.054 17.4848 66.958C17.7608 66.858 18.0748 66.808 18.4268 66.808C18.8308 66.808 19.1948 66.872 19.5188 67C19.8468 67.128 20.1268 67.304 20.3588 67.528L20.1008 67.954ZM23.2517 67.678C23.5077 67.418 23.7897 67.208 24.0977 67.048C24.4097 66.888 24.7677 66.808 25.1717 66.808C25.5077 66.808 25.8017 66.864 26.0537 66.976C26.3097 67.088 26.5237 67.246 26.6957 67.45C26.8677 67.65 26.9977 67.892 27.0857 68.176C27.1737 68.46 27.2177 68.774 27.2177 69.118V73H26.0417V69.118C26.0417 68.682 25.9417 68.344 25.7417 68.104C25.5417 67.86 25.2357 67.738 24.8237 67.738C24.5237 67.738 24.2417 67.81 23.9777 67.954C23.7177 68.094 23.4757 68.286 23.2517 68.53V73H22.0817V64.144H23.2517V67.678ZM30.3265 71.5C30.5185 71.752 30.7265 71.928 30.9505 72.028C31.1745 72.128 31.4185 72.178 31.6825 72.178C32.2265 72.178 32.6445 71.984 32.9365 71.596C33.2325 71.208 33.3805 70.622 33.3805 69.838C33.3805 69.114 33.2505 68.584 32.9905 68.248C32.7305 67.908 32.3625 67.738 31.8865 67.738C31.5505 67.738 31.2585 67.814 31.0105 67.966C30.7665 68.118 30.5385 68.334 30.3265 68.614V71.5ZM30.3265 67.744C30.5785 67.464 30.8645 67.238 31.1845 67.066C31.5045 66.894 31.8685 66.808 32.2765 66.808C32.6325 66.808 32.9525 66.878 33.2365 67.018C33.5245 67.154 33.7685 67.352 33.9685 67.612C34.1685 67.868 34.3225 68.18 34.4305 68.548C34.5385 68.916 34.5925 69.332 34.5925 69.796C34.5925 70.288 34.5305 70.736 34.4065 71.14C34.2865 71.544 34.1125 71.89 33.8845 72.178C33.6605 72.466 33.3865 72.69 33.0625 72.85C32.7385 73.006 32.3745 73.084 31.9705 73.084C31.7745 73.084 31.5945 73.064 31.4305 73.024C31.2665 72.988 31.1145 72.934 30.9745 72.862C30.8385 72.79 30.7125 72.702 30.5965 72.598C30.4805 72.494 30.3705 72.376 30.2665 72.244L30.2125 72.754C30.1805 72.918 30.0805 73 29.9125 73H29.1565V64.144H30.3265V67.744ZM38.8528 66.808C39.3008 66.808 39.7048 66.882 40.0648 67.03C40.4288 67.174 40.7368 67.384 40.9888 67.66C41.2448 67.932 41.4408 68.262 41.5768 68.65C41.7128 69.034 41.7808 69.466 41.7808 69.946C41.7808 70.426 41.7128 70.86 41.5768 71.248C41.4408 71.636 41.2448 71.966 40.9888 72.238C40.7368 72.51 40.4288 72.72 40.0648 72.868C39.7048 73.012 39.3008 73.084 38.8528 73.084C38.4008 73.084 37.9928 73.012 37.6288 72.868C37.2688 72.72 36.9608 72.51 36.7048 72.238C36.4488 71.966 36.2508 71.636 36.1108 71.248C35.9748 70.86 35.9068 70.426 35.9068 69.946C35.9068 69.466 35.9748 69.034 36.1108 68.65C36.2508 68.262 36.4488 67.932 36.7048 67.66C36.9608 67.384 37.2688 67.174 37.6288 67.03C37.9928 66.882 38.4008 66.808 38.8528 66.808ZM38.8528 72.172C39.4288 72.172 39.8588 71.978 40.1428 71.59C40.4268 71.202 40.5688 70.656 40.5688 69.952C40.5688 69.248 40.4268 68.702 40.1428 68.314C39.8588 67.922 39.4288 67.726 38.8528 67.726C38.2688 67.726 37.8328 67.922 37.5448 68.314C37.2608 68.702 37.1188 69.248 37.1188 69.952C37.1188 70.656 37.2608 71.202 37.5448 71.59C37.8328 71.978 38.2688 72.172 38.8528 72.172ZM46.7228 70.294C46.2468 70.31 45.8428 70.348 45.5108 70.408C45.1788 70.464 44.9088 70.54 44.7008 70.636C44.4928 70.732 44.3428 70.846 44.2508 70.978C44.1588 71.106 44.1128 71.25 44.1128 71.41C44.1128 71.562 44.1368 71.694 44.1848 71.806C44.2368 71.914 44.3048 72.004 44.3888 72.076C44.4768 72.144 44.5788 72.194 44.6948 72.226C44.8108 72.258 44.9368 72.274 45.0728 72.274C45.2528 72.274 45.4168 72.256 45.5648 72.22C45.7168 72.184 45.8588 72.134 45.9908 72.07C46.1228 72.002 46.2488 71.92 46.3688 71.824C46.4888 71.728 46.6068 71.618 46.7228 71.494V70.294ZM43.2908 67.756C43.6308 67.432 43.9988 67.19 44.3948 67.03C44.7948 66.87 45.2328 66.79 45.7088 66.79C46.0568 66.79 46.3648 66.848 46.6328 66.964C46.9008 67.076 47.1268 67.234 47.3108 67.438C47.4948 67.642 47.6328 67.886 47.7248 68.17C47.8208 68.454 47.8688 68.768 47.8688 69.112V73H47.3468C47.2308 73 47.1428 72.982 47.0828 72.946C47.0228 72.906 46.9748 72.834 46.9388 72.73L46.8128 72.196C46.6568 72.34 46.5028 72.468 46.3508 72.58C46.1988 72.688 46.0388 72.782 45.8708 72.862C45.7068 72.938 45.5308 72.996 45.3428 73.036C45.1548 73.076 44.9468 73.096 44.7188 73.096C44.4788 73.096 44.2528 73.064 44.0408 73C43.8328 72.932 43.6508 72.83 43.4948 72.694C43.3388 72.558 43.2148 72.388 43.1228 72.184C43.0348 71.98 42.9908 71.742 42.9908 71.47C42.9908 71.23 43.0548 71 43.1828 70.78C43.3148 70.556 43.5268 70.356 43.8188 70.18C44.1148 70.004 44.4988 69.86 44.9708 69.748C45.4468 69.636 46.0308 69.572 46.7228 69.556V69.112C46.7228 68.652 46.6248 68.308 46.4288 68.08C46.2328 67.852 45.9448 67.738 45.5648 67.738C45.3088 67.738 45.0928 67.77 44.9168 67.834C44.7448 67.898 44.5948 67.97 44.4668 68.05C44.3428 68.126 44.2328 68.196 44.1368 68.26C44.0448 68.324 43.9488 68.356 43.8488 68.356C43.7688 68.356 43.6988 68.334 43.6388 68.29C43.5828 68.246 43.5368 68.194 43.5008 68.134L43.2908 67.756ZM50.8991 68.074C51.0951 67.674 51.3311 67.36 51.6071 67.132C51.8831 66.904 52.2151 66.79 52.6031 66.79C52.7351 66.79 52.8591 66.806 52.9751 66.838C53.0951 66.866 53.1991 66.91 53.2871 66.97L53.2091 67.852C53.1811 67.96 53.1151 68.014 53.0111 68.014C52.9551 68.014 52.8711 68.004 52.7591 67.984C52.6471 67.96 52.5271 67.948 52.3991 67.948C52.2111 67.948 52.0451 67.976 51.9011 68.032C51.7571 68.084 51.6271 68.164 51.5111 68.272C51.3991 68.376 51.2991 68.506 51.2111 68.662C51.1231 68.814 51.0411 68.988 50.9651 69.184V73H49.7951V66.904H50.4671C50.5951 66.904 50.6811 66.928 50.7251 66.976C50.7731 67.02 50.8071 67.1 50.8271 67.216L50.8991 68.074ZM58.2687 68.38C58.0767 68.128 57.8687 67.952 57.6447 67.852C57.4247 67.752 57.1767 67.702 56.9007 67.702C56.3647 67.702 55.9487 67.896 55.6527 68.284C55.3607 68.668 55.2147 69.23 55.2147 69.97C55.2147 70.358 55.2467 70.69 55.3107 70.966C55.3787 71.238 55.4747 71.462 55.5987 71.638C55.7267 71.81 55.8827 71.938 56.0667 72.022C56.2507 72.102 56.4587 72.142 56.6907 72.142C57.0307 72.142 57.3247 72.066 57.5727 71.914C57.8207 71.762 58.0527 71.548 58.2687 71.272V68.38ZM59.4447 64.144V73H58.7367C58.5727 73 58.4707 72.922 58.4307 72.766L58.3287 72.064C58.0687 72.372 57.7727 72.62 57.4407 72.808C57.1127 72.992 56.7327 73.084 56.3007 73.084C55.9527 73.084 55.6367 73.016 55.3527 72.88C55.0727 72.744 54.8327 72.546 54.6327 72.286C54.4327 72.022 54.2787 71.696 54.1707 71.308C54.0627 70.92 54.0087 70.474 54.0087 69.97C54.0087 69.518 54.0687 69.098 54.1887 68.71C54.3087 68.322 54.4827 67.986 54.7107 67.702C54.9387 67.418 55.2147 67.196 55.5387 67.036C55.8627 66.872 56.2287 66.79 56.6367 66.79C57.0047 66.79 57.3167 66.85 57.5727 66.97C57.8327 67.09 58.0647 67.26 58.2687 67.48V64.144H59.4447Z" fill="white"/>
<g filter="url(#filter0_d_10_389)">
<rect x="11" y="6" width="38" height="38" rx="7" fill="#FFA5CB"/>
</g>
<path fill-rule="evenodd" clip-rule="evenodd" d="M35.0001 21.5C35.4603 21.5 35.8334 21.8731 35.8334 22.3333V30.6667C35.8334 31.1269 35.4603 31.5 35.0001 31.5C34.5398 31.5 34.1667 31.1269 34.1667 30.6667V22.3333C34.1667 21.8731 34.5398 21.5 35.0001 21.5Z" fill="white"/>
<path fill-rule="evenodd" clip-rule="evenodd" d="M30.0001 16.5C30.4603 16.5 30.8334 16.8731 30.8334 17.3333V30.6667C30.8334 31.1269 30.4603 31.5 30.0001 31.5C29.5398 31.5 29.1667 31.1269 29.1667 30.6667V17.3333C29.1667 16.8731 29.5398 16.5 30.0001 16.5Z" fill="white"/>
<path fill-rule="evenodd" clip-rule="evenodd" d="M25.0001 24.8333C25.4603 24.8333 25.8334 25.2064 25.8334 25.6666V30.6666C25.8334 31.1269 25.4603 31.5 25.0001 31.5C24.5398 31.5 24.1667 31.1269 24.1667 30.6666V25.6666C24.1667 25.2064 24.5398 24.8333 25.0001 24.8333Z" fill="white"/>
<defs>
<filter id="filter0_d_10_389" x="1" y="0" width="58" height="58" filterUnits="userSpaceOnUse" color-interpolation-filters="sRGB">
<feFlood flood-opacity="0" result="BackgroundImageFix"/>
<feColorMatrix in="SourceAlpha" type="matrix" values="0 0 0 0 0 0 0 0 0 0 0 0 0 0 0 0 0 0 127 0" result="hardAlpha"/>
<feOffset dy="4"/>
<feGaussianBlur stdDeviation="5"/>
<feComposite in2="hardAlpha" operator="out"/>
<feColorMatrix type="matrix" values="0 0 0 0 1 0 0 0 0 1 0 0 0 0 1 0 0 0 0.13 0"/>
<feBlend mode="normal" in2="BackgroundImageFix" result="effect1_dropShadow_10_389"/>
<feBlend mode="normal" in="SourceGraphic" in2="effect1_dropShadow_10_389" result="shape"/>
</filter>
</defs>
</svg>
