<svg width="30" height="31" viewBox="0 0 30 31" fill="none" xmlns="http://www.w3.org/2000/svg">
<path d="M27.1334 16.3438V14.6451L29.2523 12.7798C29.6428 12.4334 29.8992 11.9593 29.9759 11.4412C30.0526 10.9232 29.9449 10.3944 29.6716 9.94857L27.0672 5.50743C26.8737 5.17019 26.5954 4.89009 26.2603 4.69521C25.9252 4.50033 25.5451 4.39754 25.1581 4.39714C24.9182 4.39529 24.6796 4.43279 24.4518 4.50817L21.7701 5.4186C21.3071 5.10906 20.8242 4.83088 20.3245 4.58589L19.7616 1.78797C19.6607 1.2768 19.3843 0.817623 18.9808 0.490824C18.5773 0.164024 18.0724 -0.00957754 17.5545 0.000407953H12.3899C11.872 -0.00957754 11.3671 0.164024 10.9636 0.490824C10.5601 0.817623 10.2837 1.2768 10.1827 1.78797L9.61992 4.58589C9.11662 4.83082 8.63 5.109 8.16322 5.4186L5.53675 4.46376C5.30643 4.40338 5.06793 4.38089 4.83047 4.39714C4.44342 4.39754 4.06328 4.50033 3.72819 4.69521C3.3931 4.89009 3.11483 5.17019 2.92131 5.50743L0.316906 9.94857C0.0593204 10.3938 -0.0363973 10.9152 0.0461463 11.4237C0.12869 11.9321 0.384359 12.3958 0.769366 12.7354L2.8551 14.6562V16.3549L0.769366 18.2202C0.373484 18.5622 0.110822 19.0342 0.027992 19.5525C-0.0548377 20.0708 0.047522 20.6018 0.316906 21.0514L2.92131 25.4926C3.11483 25.8298 3.3931 26.1099 3.72819 26.3048C4.06328 26.4997 4.44342 26.6025 4.83047 26.6029C5.07033 26.6047 5.30888 26.5672 5.53675 26.4918L8.2184 25.5814C8.68139 25.8909 9.16434 26.1691 9.66407 26.4141L10.2269 29.212C10.3278 29.7232 10.6042 30.1824 11.0077 30.5092C11.4112 30.836 11.9161 31.0096 12.434 30.9996H17.6428C18.1607 31.0096 18.6656 30.836 19.0691 30.5092C19.4726 30.1824 19.749 29.7232 19.8499 29.212L20.4127 26.4141C20.916 26.1692 21.4027 25.891 21.8694 25.5814L24.5401 26.4918C24.7679 26.5672 25.0065 26.6047 25.2463 26.6029C25.6334 26.6025 26.0135 26.4997 26.3486 26.3048C26.6837 26.1099 26.962 25.8298 27.1555 25.4926L29.6716 21.0514C29.9292 20.6062 30.0249 20.0848 29.9424 19.5763C29.8598 19.0679 29.6042 18.6042 29.2192 18.2646L27.1334 16.3438ZM25.1581 24.3823L21.3728 23.0944C20.4868 23.8495 19.4741 24.4397 18.3822 24.8375L17.5987 28.8234H12.3899L11.6063 24.8819C10.5231 24.4729 9.51588 23.8836 8.62672 23.1388L4.83047 24.3823L2.22607 19.9411L5.22775 17.2765C5.0237 16.1272 5.0237 14.9506 5.22775 13.8013L2.22607 11.0589L4.83047 6.61771L8.61568 7.90564C9.50177 7.15053 10.5145 6.56026 11.6063 6.1625L12.3899 2.17657H17.5987L18.3822 6.11808C19.4654 6.52714 20.4726 7.11639 21.3618 7.86123L25.1581 6.61771L27.7625 11.0589L24.7608 13.7235C24.9648 14.8728 24.9648 16.0494 24.7608 17.1987L27.7625 19.9411L25.1581 24.3823Z" fill="#171721"/>
<path d="M14.9998 21.9997C13.6154 21.9997 12.262 21.6185 11.1109 20.9042C9.95982 20.19 9.06263 19.1749 8.53283 17.9872C8.00303 16.7995 7.86441 15.4926 8.1345 14.2318C8.40459 12.9709 9.07126 11.8128 10.0502 10.9038C11.0291 9.99474 12.2764 9.37569 13.6342 9.1249C14.9921 8.8741 16.3995 9.00282 17.6785 9.49477C18.9576 9.98673 20.0508 10.8198 20.82 11.8887C21.5891 12.9576 21.9996 14.2143 21.9996 15.4998C22.009 16.3558 21.8343 17.2049 21.4859 17.9975C21.1374 18.79 20.6222 19.51 19.9703 20.1153C19.3184 20.7206 18.5431 21.199 17.6896 21.5226C16.8361 21.8462 15.9217 22.0084 14.9998 21.9997ZM14.9998 11.1666C14.3831 11.1533 13.7698 11.2562 13.1972 11.4693C12.6245 11.6823 12.1043 12.001 11.6681 12.4061C11.2319 12.8111 10.8887 13.2942 10.6592 13.8259C10.4298 14.3577 10.3189 14.9271 10.3333 15.4998C10.3189 16.0725 10.4298 16.642 10.6592 17.1737C10.8887 17.7055 11.2319 18.1885 11.6681 18.5936C12.1043 18.9987 12.6245 19.3173 13.1972 19.5304C13.7698 19.7434 14.3831 19.8464 14.9998 19.8331C15.6166 19.8464 16.2298 19.7434 16.8025 19.5304C17.3752 19.3173 17.8953 18.9987 18.3316 18.5936C18.7678 18.1885 19.111 17.7055 19.3404 17.1737C19.5699 16.642 19.6807 16.0725 19.6664 15.4998C19.6807 14.9271 19.5699 14.3577 19.3404 13.8259C19.111 13.2942 18.7678 12.8111 18.3316 12.4061C17.8953 12.001 17.3752 11.6823 16.8025 11.4693C16.2298 11.2562 15.6166 11.1533 14.9998 11.1666Z" fill="#171721"/>
</svg>
