<svg width="14" height="14" viewBox="0 0 14 14" fill="none" xmlns="http://www.w3.org/2000/svg">
<path d="M12.2383 0.25H1.76172C0.917969 0.25 0.25 0.917969 0.25 1.76172V12.2383C0.25 13.082 0.917969 13.75 1.76172 13.75H12.2383C13.082 13.75 13.75 13.082 13.75 12.2383V1.76172C13.75 0.917969 13.082 0.25 12.2383 0.25ZM12.2383 12.2383H1.76172V9.98828H4.43359C4.92578 10.9023 5.91016 11.5 7 11.5C8.125 11.5 9.07422 10.9023 9.60156 9.98828H12.2383V12.2383ZM12.2383 8.51172H8.51172C8.51172 9.32031 7.84375 9.98828 7 9.98828C6.19141 9.98828 5.52344 9.32031 5.52344 8.51172H1.76172V1.76172H12.2383V8.51172Z" fill="#171721"/>
</svg>
