<svg width="164" height="76" viewBox="0 0 164 76" fill="none" xmlns="http://www.w3.org/2000/svg">
<path d="M151.65 43.319L152.744 38.5133H150.203L151.386 33.3171H146.501L145.319 38.5133H139.496L153.371 19.4473H147.822L133.947 38.5133L132.853 43.319H144.225L143.327 47.2648H148.211L149.111 43.319H151.65Z" fill="#EB7100"/>
<path d="M159.207 54.3393L164 33.2822H158.744L155.846 46.0136C155.677 46.7275 155.438 47.3337 155.117 47.8254C154.803 48.3173 154.436 48.7146 154.025 49.0111C153.621 49.3074 153.194 49.5229 152.746 49.6578C152.304 49.7924 151.873 49.853 151.455 49.853C151.037 49.853 150.633 49.7924 150.26 49.6578C149.879 49.5229 149.558 49.3074 149.289 49.0111C149.019 48.7146 148.84 48.3173 148.75 47.8254C148.66 47.3337 148.697 46.7275 148.852 46.0136L151.75 33.2822H146.494L143.431 46.741C143.249 47.5088 143.143 48.2431 143.113 48.937C143.075 49.6375 143.14 50.2976 143.313 50.9308C143.48 51.5574 143.782 52.1568 144.212 52.7227C144.663 53.3155 145.275 53.7667 146.037 54.0902C146.799 54.4134 147.712 54.575 148.762 54.5819C149.415 54.5819 150.074 54.501 150.737 54.3393C151.401 54.1777 152.056 53.9352 152.695 53.6117C153.335 53.2885 153.946 52.8843 154.514 52.3993L154.072 54.3393H159.207L159.207 54.3393Z" fill="#EB7100"/>
<path fill-rule="evenodd" clip-rule="evenodd" d="M34.814 68.8213C52.8855 79.5045 78.6629 81.131 96.1009 53.4547L86.2072 53.3438C74.9693 73.5608 56.5514 74.9658 34.814 68.8213V68.8213Z" fill="#EB7100"/>
<path fill-rule="evenodd" clip-rule="evenodd" d="M41.9971 58.4671C56.7325 66.7363 69.2092 64.725 79.8166 54.2051L73.0132 54.2106C62.5655 63.2071 52.2646 61.9884 41.9971 58.4671Z" fill="#EB7100"/>
<path fill-rule="evenodd" clip-rule="evenodd" d="M25.5283 53.9443L33.9467 54.0387C41.0676 67.8619 54.876 69.8018 73.1265 63.8489C56.2065 73.8926 35.1035 71.8503 25.5284 53.9443H25.5283Z" fill="#1F2C49"/>
<path fill-rule="evenodd" clip-rule="evenodd" d="M54.5591 7.17865C72.6309 -3.50462 98.4083 -5.13114 115.846 22.5452L105.953 22.6562C94.7146 2.43913 76.2967 1.03406 54.5591 7.17863V7.17865Z" fill="#EB7100"/>
<path fill-rule="evenodd" clip-rule="evenodd" d="M61.7427 17.5331C76.4779 9.26389 88.9548 11.2752 99.5622 21.7954L92.7588 21.7896C82.3109 12.7931 72.0102 14.0118 61.7427 17.5331Z" fill="#EB7100"/>
<path fill-rule="evenodd" clip-rule="evenodd" d="M45.2734 22.0555L53.6918 21.9611C60.8128 8.13794 74.6211 6.19821 92.8714 12.1509C75.9516 2.10722 54.8486 4.14972 45.2735 22.0555H45.2734Z" fill="#1F2C49"/>
<path d="M5.59375 49.3125C4.47917 49.3125 3.50521 49.2344 2.67188 49.0781C1.84896 48.9219 1.07812 48.6615 0.359375 48.2969V44.4219C1.14062 44.8698 1.94271 45.2188 2.76562 45.4688C3.59896 45.7083 4.45833 45.8281 5.34375 45.8281C5.83333 45.8281 6.29167 45.7604 6.71875 45.625C7.15625 45.4896 7.51042 45.2812 7.78125 45C8.05208 44.7188 8.1875 44.3646 8.1875 43.9375C8.1875 43.6458 8.11979 43.3854 7.98438 43.1562C7.84896 42.9271 7.58854 42.6771 7.20312 42.4062C6.82812 42.125 6.28125 41.7865 5.5625 41.3906C4.84375 40.9844 4.22917 40.5677 3.71875 40.1406C3.21875 39.7135 2.83333 39.2292 2.5625 38.6875C2.30208 38.1458 2.17188 37.5104 2.17188 36.7812C2.17188 35.5729 2.4375 34.5573 2.96875 33.7344C3.5 32.901 4.26042 32.2708 5.25 31.8438C6.25 31.4167 7.44271 31.2031 8.82812 31.2031C9.83854 31.2031 10.8125 31.3177 11.75 31.5469C12.6875 31.776 13.6042 32.1562 14.5 32.6875L12.9531 36.0469C12.3385 35.6719 11.6823 35.3594 10.9844 35.1094C10.2969 34.8594 9.60938 34.7344 8.92188 34.7344C8.41146 34.7344 7.95312 34.8542 7.54688 35.0938C7.14062 35.3333 6.9375 35.7031 6.9375 36.2031C6.9375 36.474 7.01042 36.724 7.15625 36.9531C7.30208 37.1719 7.54688 37.3958 7.89062 37.625C8.24479 37.8542 8.71875 38.125 9.3125 38.4375C10.0208 38.8021 10.6458 39.2083 11.1875 39.6562C11.7396 40.0938 12.1719 40.6042 12.4844 41.1875C12.7969 41.7604 12.9531 42.4427 12.9531 43.2344C12.9531 44.5677 12.651 45.6875 12.0469 46.5938C11.4427 47.4896 10.5885 48.1667 9.48438 48.625C8.39062 49.0833 7.09375 49.3125 5.59375 49.3125ZM15.25 56.6875C14.6875 56.6875 14.2292 56.6562 13.875 56.5938C13.5104 56.5312 13.2031 56.4635 12.9531 56.3906V52.6406C13.224 52.6927 13.5052 52.7396 13.7969 52.7812C14.0781 52.8229 14.401 52.8438 14.7656 52.8438C15.7552 52.8438 16.5729 52.5521 17.2188 51.9688C17.8646 51.3958 18.4271 50.6615 18.9062 49.7656L19.3125 49L16.75 31.5312H21.3594L22.2344 39.625C22.2865 40.1042 22.3229 40.6198 22.3438 41.1719C22.375 41.7135 22.3958 42.25 22.4062 42.7812C22.4167 43.3125 22.4219 43.7865 22.4219 44.2031H22.5469C22.6927 43.849 22.8385 43.4531 22.9844 43.0156C23.1406 42.5781 23.3177 42.1042 23.5156 41.5938C23.724 41.0729 23.9688 40.5208 24.25 39.9375L28.3125 31.5312H33.4219L22.7969 51.5C22.1719 52.6771 21.4688 53.651 20.6875 54.4219C19.9167 55.1927 19.0781 55.7604 18.1719 56.125C17.2656 56.5 16.2917 56.6875 15.25 56.6875ZM32.3594 49L36.0625 31.5312H39.6562L39.3281 34.7656H39.4688C39.9167 34.0677 40.4115 33.4531 40.9531 32.9219C41.4948 32.3906 42.0938 31.974 42.75 31.6719C43.4167 31.3594 44.1562 31.2031 44.9688 31.2031C45.9688 31.2031 46.8021 31.4115 47.4688 31.8281C48.1458 32.2344 48.651 32.8125 48.9844 33.5625C49.3177 34.3125 49.4844 35.2031 49.4844 36.2344C49.4844 36.6198 49.4531 37.0521 49.3906 37.5312C49.3281 38.0104 49.2396 38.5156 49.125 39.0469L47.0469 49H42.3438L44.4844 38.7969C44.5677 38.4427 44.6302 38.1094 44.6719 37.7969C44.7135 37.4844 44.7344 37.1979 44.7344 36.9375C44.7344 36.2812 44.5938 35.7969 44.3125 35.4844C44.0312 35.1719 43.6094 35.0156 43.0469 35.0156C42.3385 35.0156 41.6979 35.3229 41.125 35.9375C40.5521 36.5417 40.0521 37.3542 39.625 38.375C39.2083 39.3958 38.8646 40.526 38.5938 41.7656L37.0625 49H32.3594ZM59.2188 49.3125C57.9062 49.3125 56.7448 49.0417 55.7344 48.5C54.7344 47.9583 53.9479 47.1875 53.375 46.1875C52.8125 45.1771 52.5312 43.9792 52.5312 42.5938C52.5312 41.3542 52.651 40.1719 52.8906 39.0469C53.1406 37.9115 53.5104 36.8698 54 35.9219C54.5 34.9635 55.1198 34.1354 55.8594 33.4375C56.6094 32.7292 57.4792 32.1823 58.4688 31.7969C59.4583 31.401 60.5729 31.2031 61.8125 31.2031C63.1667 31.2031 64.3385 31.4792 65.3281 32.0312C66.3177 32.5729 67.0833 33.3594 67.625 34.3906C68.1667 35.4219 68.4375 36.6667 68.4375 38.125C68.4375 39.3125 68.3177 40.4583 68.0781 41.5625C67.849 42.6562 67.4948 43.6771 67.0156 44.625C66.5365 45.5625 65.9323 46.3854 65.2031 47.0938C64.474 47.7917 63.6094 48.3385 62.6094 48.7344C61.6198 49.1198 60.4896 49.3125 59.2188 49.3125ZM59.6094 45.4844C60.1302 45.4844 60.6042 45.3542 61.0312 45.0938C61.4583 44.8229 61.8385 44.4531 62.1719 43.9844C62.5052 43.5052 62.7812 42.9583 63 42.3438C63.2292 41.7188 63.401 41.0469 63.5156 40.3281C63.6406 39.6094 63.7031 38.875 63.7031 38.125C63.7031 37.5312 63.6302 37.0052 63.4844 36.5469C63.349 36.0781 63.1146 35.7135 62.7812 35.4531C62.4583 35.1823 62.0208 35.0469 61.4688 35.0469C60.8958 35.0469 60.3802 35.2083 59.9219 35.5312C59.474 35.8438 59.0833 36.2656 58.75 36.7969C58.4167 37.3281 58.1406 37.9219 57.9219 38.5781C57.7031 39.2344 57.5365 39.9115 57.4219 40.6094C57.3177 41.2969 57.2656 41.9583 57.2656 42.5938C57.2656 43.5417 57.4583 44.2604 57.8438 44.75C58.2292 45.2396 58.8177 45.4844 59.6094 45.4844ZM70.6719 49L75.5 26.1562H81.8125L82.8281 43.2344H82.9688L91.5469 26.1562H98.1562L93.3281 49H88.9531L91.2188 38.1875C91.375 37.4688 91.5521 36.6979 91.75 35.875C91.9479 35.0521 92.151 34.2396 92.3594 33.4375C92.5677 32.6354 92.7552 31.9219 92.9219 31.2969H92.7812L83.8906 49H79.5L78.5469 31.2969H78.4219C78.3698 31.7552 78.2812 32.375 78.1562 33.1562C78.0312 33.9375 77.8854 34.7865 77.7188 35.7031C77.5625 36.6094 77.3906 37.5 77.2031 38.375L74.9688 49H70.6719ZM106.312 49.3125C104.948 49.3125 103.745 49.0677 102.703 48.5781C101.672 48.0781 100.865 47.3281 100.281 46.3281C99.6979 45.3281 99.4062 44.0729 99.4062 42.5625C99.4062 41.1042 99.6146 39.6979 100.031 38.3438C100.448 36.9792 101.068 35.7604 101.891 34.6875C102.724 33.6146 103.745 32.7656 104.953 32.1406C106.172 31.5156 107.578 31.2031 109.172 31.2031C111.13 31.2031 112.594 31.651 113.562 32.5469C114.542 33.4323 115.031 34.5729 115.031 35.9688C115.031 36.8854 114.823 37.7188 114.406 38.4688C114 39.2188 113.38 39.8646 112.547 40.4062C111.714 40.9375 110.667 41.349 109.406 41.6406C108.146 41.9219 106.667 42.0625 104.969 42.0625H104.172C104.161 42.1875 104.151 42.2969 104.141 42.3906C104.141 42.4844 104.141 42.5885 104.141 42.7031C104.141 43.6406 104.411 44.3854 104.953 44.9375C105.495 45.4896 106.26 45.7656 107.25 45.7656C108.167 45.7656 109 45.6615 109.75 45.4531C110.5 45.2448 111.385 44.901 112.406 44.4219V47.9688C111.49 48.4167 110.557 48.7552 109.609 48.9844C108.661 49.2031 107.562 49.3125 106.312 49.3125ZM104.688 38.8906H105.391C106.599 38.8906 107.578 38.7604 108.328 38.5C109.089 38.2396 109.641 37.8958 109.984 37.4688C110.339 37.0417 110.516 36.5781 110.516 36.0781C110.516 35.5781 110.37 35.2083 110.078 34.9688C109.797 34.7188 109.396 34.5938 108.875 34.5938C108.292 34.5938 107.714 34.776 107.141 35.1406C106.568 35.5052 106.062 36.0104 105.625 36.6562C105.188 37.3021 104.875 38.0469 104.688 38.8906ZM121.438 49.3125C120.323 49.3125 119.349 49.2344 118.516 49.0781C117.693 48.9219 116.922 48.6615 116.203 48.2969V44.4219C116.984 44.8698 117.786 45.2188 118.609 45.4688C119.443 45.7083 120.302 45.8281 121.188 45.8281C121.677 45.8281 122.135 45.7604 122.562 45.625C123 45.4896 123.354 45.2812 123.625 45C123.896 44.7188 124.031 44.3646 124.031 43.9375C124.031 43.6458 123.964 43.3854 123.828 43.1562C123.693 42.9271 123.432 42.6771 123.047 42.4062C122.672 42.125 122.125 41.7865 121.406 41.3906C120.688 40.9844 120.073 40.5677 119.562 40.1406C119.062 39.7135 118.677 39.2292 118.406 38.6875C118.146 38.1458 118.016 37.5104 118.016 36.7812C118.016 35.5729 118.281 34.5573 118.812 33.7344C119.344 32.901 120.104 32.2708 121.094 31.8438C122.094 31.4167 123.286 31.2031 124.672 31.2031C125.682 31.2031 126.656 31.3177 127.594 31.5469C128.531 31.776 129.448 32.1562 130.344 32.6875L128.797 36.0469C128.182 35.6719 127.526 35.3594 126.828 35.1094C126.141 34.8594 125.453 34.7344 124.766 34.7344C124.255 34.7344 123.797 34.8542 123.391 35.0938C122.984 35.3333 122.781 35.7031 122.781 36.2031C122.781 36.474 122.854 36.724 123 36.9531C123.146 37.1719 123.391 37.3958 123.734 37.625C124.089 37.8542 124.562 38.125 125.156 38.4375C125.865 38.8021 126.49 39.2083 127.031 39.6562C127.583 40.0938 128.016 40.6042 128.328 41.1875C128.641 41.7604 128.797 42.4427 128.797 43.2344C128.797 44.5677 128.495 45.6875 127.891 46.5938C127.286 47.4896 126.432 48.1667 125.328 48.625C124.234 49.0833 122.938 49.3125 121.438 49.3125Z" fill="#1F2C49"/>
</svg>
