<svg width="70" height="79" viewBox="0 0 70 79" fill="none" xmlns="http://www.w3.org/2000/svg">
<path d="M12.312 58.384L9.624 67H8.472L6.372 60.61C6.324 60.482 6.282 60.328 6.246 60.148C6.202 60.332 6.16 60.486 6.12 60.61L3.996 67H2.85L0.162 58.384H1.23C1.342 58.384 1.436 58.412 1.512 58.468C1.588 58.52 1.638 58.592 1.662 58.684L3.36 64.45C3.392 64.562 3.42 64.684 3.444 64.816C3.472 64.948 3.5 65.086 3.528 65.23C3.556 65.086 3.584 64.948 3.612 64.816C3.644 64.684 3.68 64.562 3.72 64.45L5.664 58.684C5.688 58.604 5.738 58.534 5.814 58.474C5.894 58.414 5.988 58.384 6.096 58.384H6.462C6.574 58.384 6.666 58.412 6.738 58.468C6.81 58.524 6.862 58.596 6.894 58.684L8.832 64.45C8.904 64.67 8.968 64.92 9.024 65.2C9.072 64.924 9.124 64.674 9.18 64.45L10.884 58.684C10.904 58.604 10.954 58.534 11.034 58.474C11.114 58.414 11.208 58.384 11.316 58.384H12.312ZM15.5573 60.808C16.0053 60.808 16.4093 60.882 16.7693 61.03C17.1333 61.174 17.4413 61.384 17.6933 61.66C17.9493 61.932 18.1453 62.262 18.2813 62.65C18.4173 63.034 18.4853 63.466 18.4853 63.946C18.4853 64.426 18.4173 64.86 18.2813 65.248C18.1453 65.636 17.9493 65.966 17.6933 66.238C17.4413 66.51 17.1333 66.72 16.7693 66.868C16.4093 67.012 16.0053 67.084 15.5573 67.084C15.1053 67.084 14.6973 67.012 14.3333 66.868C13.9733 66.72 13.6653 66.51 13.4093 66.238C13.1533 65.966 12.9553 65.636 12.8153 65.248C12.6793 64.86 12.6113 64.426 12.6113 63.946C12.6113 63.466 12.6793 63.034 12.8153 62.65C12.9553 62.262 13.1533 61.932 13.4093 61.66C13.6653 61.384 13.9733 61.174 14.3333 61.03C14.6973 60.882 15.1053 60.808 15.5573 60.808ZM15.5573 66.172C16.1333 66.172 16.5633 65.978 16.8473 65.59C17.1313 65.202 17.2733 64.656 17.2733 63.952C17.2733 63.248 17.1313 62.702 16.8473 62.314C16.5633 61.922 16.1333 61.726 15.5573 61.726C14.9733 61.726 14.5373 61.922 14.2493 62.314C13.9653 62.702 13.8233 63.248 13.8233 63.952C13.8233 64.656 13.9653 65.202 14.2493 65.59C14.5373 65.978 14.9733 66.172 15.5573 66.172ZM21.2554 62.074C21.4514 61.674 21.6874 61.36 21.9634 61.132C22.2394 60.904 22.5714 60.79 22.9594 60.79C23.0914 60.79 23.2154 60.806 23.3314 60.838C23.4514 60.866 23.5554 60.91 23.6434 60.97L23.5654 61.852C23.5374 61.96 23.4714 62.014 23.3674 62.014C23.3114 62.014 23.2274 62.004 23.1154 61.984C23.0034 61.96 22.8834 61.948 22.7554 61.948C22.5674 61.948 22.4014 61.976 22.2574 62.032C22.1134 62.084 21.9834 62.164 21.8674 62.272C21.7554 62.376 21.6554 62.506 21.5674 62.662C21.4794 62.814 21.3974 62.988 21.3214 63.184V67H20.1514V60.904H20.8234C20.9514 60.904 21.0374 60.928 21.0814 60.976C21.1294 61.02 21.1634 61.1 21.1834 61.216L21.2554 62.074ZM26.0759 58.144V63.322H26.3519C26.4359 63.322 26.5059 63.31 26.5619 63.286C26.6179 63.262 26.6759 63.214 26.7359 63.142L28.5599 61.132C28.6159 61.056 28.6779 61 28.7459 60.964C28.8139 60.924 28.8999 60.904 29.0039 60.904H30.0719L27.9179 63.262C27.8019 63.41 27.6779 63.524 27.5459 63.604C27.6219 63.656 27.6879 63.716 27.7439 63.784C27.8039 63.852 27.8619 63.926 27.9179 64.006L30.2099 67H29.1599C29.0639 67 28.9799 66.984 28.9079 66.952C28.8399 66.92 28.7779 66.862 28.7219 66.778L26.8379 64.33C26.7779 64.238 26.7179 64.18 26.6579 64.156C26.5979 64.128 26.5079 64.114 26.3879 64.114H26.0759V67H24.9059V58.144H26.0759ZM39.1088 62.044C39.0728 62.088 39.0368 62.124 39.0008 62.152C38.9688 62.176 38.9208 62.188 38.8568 62.188C38.7928 62.188 38.7248 62.164 38.6528 62.116C38.5848 62.064 38.4968 62.01 38.3888 61.954C38.2848 61.894 38.1568 61.84 38.0048 61.792C37.8568 61.74 37.6728 61.714 37.4528 61.714C37.1648 61.714 36.9108 61.766 36.6908 61.87C36.4708 61.974 36.2868 62.122 36.1388 62.314C35.9948 62.506 35.8848 62.74 35.8088 63.016C35.7328 63.292 35.6948 63.602 35.6948 63.946C35.6948 64.302 35.7348 64.62 35.8148 64.9C35.8948 65.176 36.0088 65.41 36.1568 65.602C36.3048 65.79 36.4848 65.934 36.6968 66.034C36.9088 66.13 37.1448 66.178 37.4048 66.178C37.6568 66.178 37.8648 66.148 38.0288 66.088C38.1928 66.024 38.3288 65.956 38.4368 65.884C38.5448 65.812 38.6348 65.746 38.7068 65.686C38.7788 65.622 38.8528 65.59 38.9288 65.59C39.0248 65.59 39.0988 65.626 39.1508 65.698L39.4868 66.13C39.3468 66.302 39.1888 66.448 39.0128 66.568C38.8408 66.688 38.6568 66.786 38.4608 66.862C38.2648 66.938 38.0588 66.994 37.8428 67.03C37.6308 67.066 37.4148 67.084 37.1948 67.084C36.8148 67.084 36.4588 67.014 36.1268 66.874C35.7988 66.734 35.5128 66.53 35.2688 66.262C35.0288 65.994 34.8388 65.666 34.6988 65.278C34.5588 64.886 34.4888 64.442 34.4888 63.946C34.4888 63.494 34.5508 63.076 34.6748 62.692C34.8028 62.308 34.9888 61.978 35.2328 61.702C35.4808 61.422 35.7848 61.204 36.1448 61.048C36.5048 60.888 36.9168 60.808 37.3808 60.808C37.8168 60.808 38.2008 60.878 38.5328 61.018C38.8648 61.158 39.1608 61.356 39.4208 61.612L39.1088 62.044ZM44.8716 63.274C44.8716 63.042 44.8376 62.828 44.7696 62.632C44.7056 62.436 44.6096 62.266 44.4816 62.122C44.3536 61.978 44.1976 61.866 44.0136 61.786C43.8296 61.706 43.6176 61.666 43.3776 61.666C42.8856 61.666 42.4976 61.808 42.2136 62.092C41.9336 62.376 41.7556 62.77 41.6796 63.274H44.8716ZM45.8376 66.13C45.6936 66.298 45.5276 66.444 45.3396 66.568C45.1516 66.688 44.9516 66.786 44.7396 66.862C44.5276 66.938 44.3076 66.994 44.0796 67.03C43.8556 67.066 43.6336 67.084 43.4136 67.084C42.9936 67.084 42.6036 67.014 42.2436 66.874C41.8876 66.73 41.5776 66.522 41.3136 66.25C41.0536 65.974 40.8496 65.634 40.7016 65.23C40.5576 64.822 40.4856 64.354 40.4856 63.826C40.4856 63.402 40.5516 63.008 40.6836 62.644C40.8156 62.276 41.0036 61.956 41.2476 61.684C41.4956 61.412 41.7976 61.198 42.1536 61.042C42.5096 60.886 42.9096 60.808 43.3536 60.808C43.7256 60.808 44.0676 60.87 44.3796 60.994C44.6956 61.114 44.9676 61.29 45.1956 61.522C45.4236 61.754 45.6016 62.04 45.7296 62.38C45.8616 62.72 45.9276 63.108 45.9276 63.544C45.9276 63.724 45.9076 63.846 45.8676 63.91C45.8276 63.97 45.7536 64 45.6456 64H41.6496C41.6616 64.364 41.7136 64.682 41.8056 64.954C41.8976 65.222 42.0236 65.446 42.1836 65.626C42.3476 65.806 42.5416 65.94 42.7656 66.028C42.9896 66.116 43.2396 66.16 43.5156 66.16C43.7756 66.16 43.9996 66.13 44.1876 66.07C44.3796 66.01 44.5436 65.946 44.6796 65.878C44.8196 65.806 44.9356 65.74 45.0276 65.68C45.1236 65.62 45.2076 65.59 45.2796 65.59C45.3756 65.59 45.4496 65.626 45.5016 65.698L45.8376 66.13ZM48.6431 61.75C48.7751 61.61 48.9131 61.482 49.0571 61.366C49.2011 61.25 49.3531 61.152 49.5131 61.072C49.6771 60.988 49.8511 60.924 50.0351 60.88C50.2231 60.832 50.4231 60.808 50.6351 60.808C50.9711 60.808 51.2651 60.864 51.5171 60.976C51.7731 61.088 51.9871 61.246 52.1591 61.45C52.3311 61.65 52.4611 61.892 52.5491 62.176C52.6371 62.46 52.6811 62.774 52.6811 63.118V67H51.5051V63.118C51.5051 62.682 51.4051 62.344 51.2051 62.104C51.0051 61.86 50.6991 61.738 50.2871 61.738C49.9871 61.738 49.7051 61.81 49.4411 61.954C49.1811 62.094 48.9391 62.286 48.7151 62.53V67H47.5451V60.904H48.2471C48.4111 60.904 48.5131 60.982 48.5531 61.138L48.6431 61.75ZM56.4459 67.096C55.9539 67.096 55.5739 66.958 55.3059 66.682C55.0419 66.406 54.9099 66.012 54.9099 65.5V61.852H54.2019C54.1339 61.852 54.0759 61.832 54.0279 61.792C53.9839 61.748 53.9619 61.684 53.9619 61.6V61.126L54.9519 60.988L55.2159 59.17C55.2319 59.102 55.2619 59.05 55.3059 59.014C55.3539 58.974 55.4139 58.954 55.4859 58.954H56.0799V61H57.8079V61.852H56.0799V65.422C56.0799 65.662 56.1379 65.842 56.2539 65.962C56.3739 66.078 56.5259 66.136 56.7099 66.136C56.8179 66.136 56.9099 66.122 56.9859 66.094C57.0659 66.066 57.1339 66.036 57.1899 66.004C57.2459 65.968 57.2939 65.936 57.3339 65.908C57.3739 65.88 57.4099 65.866 57.4419 65.866C57.4819 65.866 57.5119 65.876 57.5319 65.896C57.5559 65.912 57.5799 65.94 57.6039 65.98L57.9519 66.544C57.7599 66.72 57.5319 66.856 57.2679 66.952C57.0039 67.048 56.7299 67.096 56.4459 67.096ZM63.2484 63.274C63.2484 63.042 63.2144 62.828 63.1464 62.632C63.0824 62.436 62.9864 62.266 62.8584 62.122C62.7304 61.978 62.5744 61.866 62.3904 61.786C62.2064 61.706 61.9944 61.666 61.7544 61.666C61.2624 61.666 60.8744 61.808 60.5904 62.092C60.3104 62.376 60.1324 62.77 60.0564 63.274H63.2484ZM64.2144 66.13C64.0704 66.298 63.9044 66.444 63.7164 66.568C63.5284 66.688 63.3284 66.786 63.1164 66.862C62.9044 66.938 62.6844 66.994 62.4564 67.03C62.2324 67.066 62.0104 67.084 61.7904 67.084C61.3704 67.084 60.9804 67.014 60.6204 66.874C60.2644 66.73 59.9544 66.522 59.6904 66.25C59.4304 65.974 59.2264 65.634 59.0784 65.23C58.9344 64.822 58.8624 64.354 58.8624 63.826C58.8624 63.402 58.9284 63.008 59.0604 62.644C59.1924 62.276 59.3804 61.956 59.6244 61.684C59.8724 61.412 60.1744 61.198 60.5304 61.042C60.8864 60.886 61.2864 60.808 61.7304 60.808C62.1024 60.808 62.4444 60.87 62.7564 60.994C63.0724 61.114 63.3444 61.29 63.5724 61.522C63.8004 61.754 63.9784 62.04 64.1064 62.38C64.2384 62.72 64.3044 63.108 64.3044 63.544C64.3044 63.724 64.2844 63.846 64.2444 63.91C64.2044 63.97 64.1304 64 64.0224 64H60.0264C60.0384 64.364 60.0904 64.682 60.1824 64.954C60.2744 65.222 60.4004 65.446 60.5604 65.626C60.7244 65.806 60.9184 65.94 61.1424 66.028C61.3664 66.116 61.6164 66.16 61.8924 66.16C62.1524 66.16 62.3764 66.13 62.5644 66.07C62.7564 66.01 62.9204 65.946 63.0564 65.878C63.1964 65.806 63.3124 65.74 63.4044 65.68C63.5004 65.62 63.5844 65.59 63.6564 65.59C63.7524 65.59 63.8264 65.626 63.8784 65.698L64.2144 66.13ZM67.026 62.074C67.222 61.674 67.458 61.36 67.734 61.132C68.01 60.904 68.342 60.79 68.73 60.79C68.862 60.79 68.986 60.806 69.102 60.838C69.222 60.866 69.326 60.91 69.414 60.97L69.336 61.852C69.308 61.96 69.242 62.014 69.138 62.014C69.082 62.014 68.998 62.004 68.886 61.984C68.774 61.96 68.654 61.948 68.526 61.948C68.338 61.948 68.172 61.976 68.028 62.032C67.884 62.084 67.754 62.164 67.638 62.272C67.526 62.376 67.426 62.506 67.338 62.662C67.25 62.814 67.168 62.988 67.092 63.184V67H65.922V60.904H66.594C66.722 60.904 66.808 60.928 66.852 60.976C66.9 61.02 66.934 61.1 66.954 61.216L67.026 62.074Z" fill="white" fill-opacity="0.7"/>
<rect x="14" width="38" height="38" rx="7" fill="white" fill-opacity="0.03"/>
<path d="M32.0181 10.669L32.1015 10.6832L39.1848 12.3498C39.3077 12.3786 39.4191 12.4439 39.5042 12.5372C39.5893 12.6304 39.6441 12.7473 39.6615 12.8723L39.6673 12.9582V25.0415C39.6674 25.1678 39.6292 25.2911 39.5578 25.3952C39.4864 25.4993 39.3851 25.5794 39.2673 25.6248L39.1856 25.6498L32.1023 27.3165C32.0176 27.3365 31.9296 27.3385 31.844 27.3225C31.7584 27.3065 31.6771 27.2727 31.6053 27.2235C31.5335 27.1742 31.4728 27.1105 31.4271 27.0364C31.3814 26.9623 31.3517 26.8794 31.3398 26.7932L31.334 26.7082V11.2915C31.3339 11.1296 31.3966 10.9739 31.509 10.8573C31.6214 10.7407 31.7747 10.6723 31.9365 10.6665L32.0181 10.669ZM32.584 12.0807V25.919L38.4173 24.5465V13.4532L32.584 12.0807ZM30.5006 12.3332V13.5832H27.584V24.4165H30.5006V25.6665H26.959C26.808 25.6665 26.662 25.6118 26.5482 25.5125C26.4344 25.4133 26.3604 25.2761 26.3398 25.1265L26.334 25.0415V12.9582C26.334 12.8071 26.3887 12.6612 26.488 12.5474C26.5872 12.4336 26.7244 12.3595 26.874 12.339L26.959 12.3332H30.5006Z" fill="white" fill-opacity="0.7"/>
</svg>
